<svg xmlns="http://www.w3.org/2000/svg" fill="none" viewBox="0 0 258 75">
    <title>Passkeys</title>
    <rect width="258" height="75" fill="#e8e8e8" rx="10"/>
    <path stroke="#cecece" stroke-linecap="round" stroke-width="2" d="M121 37.5h16m0 0-6.5-6.5m6.5 6.5-6.5 6.5"/>
    <rect width="88" height="53" x="156" y="10" fill="#f9f9f9" rx="8"/>
    <rect width="38" height="12" x="201" y="45" fill="#30a46c" rx="6"/>
    <path fill="#fff" d="M216.925 53.1c-.926 0-1.524-.487-1.585-1.175l-.003-.032h.527l.003.032c.038.422.478.688 1.087.688.574 0 .993-.296.993-.726v-.003c0-.352-.243-.592-.823-.72l-.469-.104c-.846-.187-1.213-.577-1.213-1.189v-.003c.003-.7.616-1.195 1.489-1.195.843 0 1.432.498 1.476 1.128l.003.04h-.527l-.006-.037c-.059-.372-.41-.648-.961-.645-.527.003-.935.252-.935.694v.003c0 .337.232.566.806.692l.469.105c.882.197 1.23.551 1.23 1.16v.003c0 .791-.618 1.284-1.561 1.284m2.477-3.868a.352.352 0 0 1 0-.703.353.353 0 0 1 0 .703M219.145 53v-3.158h.509V53zm2.603 1.113c-.762 0-1.248-.343-1.327-.861l.006-.003h.527l.003.003c.056.24.337.41.791.41.565 0 .902-.267.902-.732v-.639h-.047c-.199.349-.556.545-.99.545-.817 0-1.324-.633-1.324-1.518v-.005c0-.885.51-1.527 1.336-1.527.445 0 .791.22.984.577h.035v-.521h.51v3.114c0 .706-.545 1.157-1.406 1.157m-.023-1.728c.585 0 .937-.44.937-1.067v-.005c0-.628-.354-1.076-.937-1.076-.586 0-.915.448-.915 1.075v.006c0 .627.329 1.067.915 1.067m2.21.615v-3.158h.51v.474h.047c.158-.334.454-.53.92-.53.709 0 1.105.42 1.105 1.17V53h-.51v-1.922c0-.568-.235-.84-.739-.84-.503 0-.823.34-.823.893V53zm5.125-3.768a.352.352 0 0 1 0-.703.353.353 0 0 1 0 .703M228.803 53v-3.158h.509V53zm1.302 0v-3.158h.51v.474h.047c.158-.334.454-.53.92-.53.709 0 1.104.42 1.104 1.17V53h-.509v-1.922c0-.568-.235-.84-.739-.84s-.823.34-.823.893V53zM206.309 49.646v-.669c0-.377.29-.668.668-.668h.669a.154.154 0 0 0 0-.309h-.669a.967.967 0 0 0-.977.977v.669a.154.154 0 1 0 .309 0m5.382 0v-.669a.657.657 0 0 0-.668-.668h-.669a.154.154 0 0 1 0-.309h.669c.548 0 .977.43.977.977v.669a.154.154 0 1 1-.309 0m-5.382 2.708v.669c0 .377.29.668.668.668h.669a.154.154 0 0 1 0 .309h-.669a.967.967 0 0 1-.977-.977v-.669a.154.154 0 1 1 .309 0m5.382 0v.669c0 .377-.29.668-.668.668h-.669a.154.154 0 0 0 0 .309h.669c.548 0 .977-.43.977-.977v-.669a.154.154 0 1 0-.309 0m-4.06-2.088v.429c0 .088.068.16.15.16.083 0 .15-.072.15-.16v-.43c0-.088-.067-.16-.15-.16s-.15.072-.15.16m2.474.001v.429c0 .088.068.16.15.16.083 0 .15-.072.15-.16v-.43c0-.088-.067-.16-.15-.16s-.15.072-.15.16m-2.16 2.166c.292.273.647.411 1.055.411q.614-.001 1.055-.41a.158.158 0 1 0-.216-.232 1.18 1.18 0 0 1-.839.326c-.329 0-.606-.108-.84-.326a.158.158 0 1 0-.215.231M209 50.263v1.105q0 .106-.106.106h-.105a.158.158 0 0 0 0 .315h.105a.406.406 0 0 0 .422-.42v-1.106a.158.158 0 0 0-.316 0"/>
    <rect width="34" height="11" x="163.5" y="45.5" fill="#fcfcfc" stroke="#e8e8e8" rx="5.5"/>
    <rect width="38.425" height="5" x="162.819" y="17" fill="#d9d9d9" rx="2.5"/>
    <rect width="59.011" height="5" x="162.819" y="27" fill="#d9d9d9" rx="2.5"/>
    <rect width="83" height="16" x="13" y="10" fill="#f9f9f9" rx="8"/>
    <rect width="83" height="16" x="13" y="30" fill="#f9f9f9" rx="8"/>
    <rect width="83" height="16" x="13" y="50" fill="#d9d9d9" rx="8"/>
    <rect width="16" height="6" x="19" y="15" fill="#d9d9d9" rx="3"/>
    <rect width="21" height="6" x="49" y="15" fill="#d9d9d9" rx="3"/>
    <rect width="9" height="6" x="72" y="15" fill="#d9d9d9" rx="3"/>
    <path fill="#cecece" d="M42.143 22C39.607 22 38 20.447 38 18.002v-.01C38 15.626 39.651 14 42.059 14 44.383 14 46 15.448 46 17.523v.01c0 1.557-.717 2.55-1.848 2.55-.565 0-.997-.312-1.076-.777l-.005-.029h-.078c-.212.49-.654.762-1.229.762-1.022 0-1.71-.82-1.71-2.032v-.01c0-1.16.703-1.974 1.71-1.974.516 0 .958.259 1.15.676h.079v-.585h.742v2.813c0 .336.201.533.555.533.62 0 1.017-.763 1.017-1.937v-.01c0-1.725-1.346-2.909-3.312-2.909-1.921 0-3.302 1.428-3.302 3.418v.01c0 2.041 1.356 3.36 3.46 3.36.673 0 1.336-.092 1.645-.23v.603c-.442.149-1.036.235-1.656.235m-.266-2.636c.673 0 1.106-.523 1.106-1.338v-.01c0-.814-.428-1.332-1.096-1.332-.659 0-1.047.499-1.047 1.333v.01c0 .829.393 1.337 1.037 1.337M20.419 39.525l.037-.875-.725.458-.232-.362.793-.42-.793-.417.232-.363.725.458-.037-.875h.468l-.038.872.721-.455.233.363-.793.417.793.42-.233.362-.72-.454.037.871zm3.105 0 .038-.875-.725.458-.232-.362.793-.42-.793-.417.232-.363.725.458-.038-.875h.468l-.037.872.721-.455.233.363-.793.417.793.42-.233.362-.721-.454.038.871zm3.106 0 .038-.875-.725.458-.233-.362.793-.42-.793-.417.233-.363.725.458-.038-.875h.468l-.037.872.72-.455.233.363-.793.417.793.42-.232.362-.721-.454.037.871zm3.106 0 .037-.875-.724.458-.233-.362.793-.42-.793-.417.233-.363.724.458-.037-.875h.468l-.038.872.722-.455.232.363-.793.417.793.42-.232.362-.722-.454.038.871zm3.106 0 .037-.875-.724.458-.233-.362.793-.42-.793-.417.232-.363.725.458-.037-.875h.468l-.038.872.721-.455.233.363-.793.417.793.42-.233.362-.72-.454.037.871zm3.105 0 .038-.875-.725.458-.232-.362.793-.42-.793-.417.232-.363.725.458-.038-.875h.468l-.037.872.721-.455.233.363-.793.417.792.42-.232.362-.721-.454.038.871zm3.106 0 .038-.875-.725.458-.232-.362.792-.42-.792-.417.232-.363.725.458-.038-.875h.468l-.037.872.72-.455.233.363-.793.417.793.42-.232.362-.721-.454.037.871zm3.106 0 .037-.875-.724.458-.233-.362.793-.42-.793-.417.233-.363.724.458-.037-.875h.468l-.038.872.722-.455.232.363-.793.417.793.42-.232.362-.722-.454.038.871zm3.105 0 .038-.875-.724.458-.233-.362.793-.42-.793-.417.233-.363.724.458-.038-.875h.469l-.038.872.721-.455.233.363-.793.417.793.42-.233.362-.72-.454.037.871zm3.106 0 .038-.875-.725.458-.232-.362.793-.42-.793-.417.232-.363.725.458-.038-.875h.469l-.038.872.721-.455.233.363-.793.417.793.42-.233.362-.721-.454.038.871zm3.106 0 .038-.875-.725.458-.232-.362.793-.42-.793-.417.232-.363.725.458-.038-.875h.468l-.037.872.72-.455.233.363-.793.417.793.42-.232.362-.721-.454.037.871zm3.106 0 .037-.875-.724.458-.233-.362.793-.42-.793-.417.233-.363.724.458-.037-.875h.468l-.037.872.72-.455.233.363-.793.417.793.42-.232.362-.721-.454.037.871zm3.105 0 .038-.875-.724.458-.233-.362.793-.42-.793-.417.233-.363.724.458-.038-.875h.469l-.038.872.721-.455.233.363-.793.417.793.42-.233.362-.72-.454.037.871zm3.106 0 .038-.875-.725.458-.232-.362.793-.42-.793-.417.232-.363.725.458-.038-.875h.469l-.038.872.721-.455.233.363-.793.417.793.42-.233.362-.721-.454.038.871zm3.106 0 .038-.875-.725.458-.232-.362.793-.42-.793-.417.232-.363.725.458-.038-.875h.468l-.037.872.72-.455.233.363-.793.417.793.42-.232.362-.721-.454.037.871zm3.106 0 .037-.875-.724.458-.233-.362.793-.42-.793-.417.233-.363.724.458-.037-.875h.468l-.037.872.72-.455.233.363-.793.417.793.42-.232.362-.721-.454.037.871zm3.106 0 .037-.875-.724.458-.233-.362.793-.42-.793-.417.233-.363.724.458-.037-.875h.468l-.038.872.721-.455.233.363-.793.417.793.42-.233.362-.72-.454.037.871zm3.105 0 .038-.875-.725.458-.232-.362.793-.42-.793-.417.232-.363.725.458-.038-.875h.469l-.038.872.721-.455.233.363-.793.417.793.42-.233.362-.721-.454.038.871z"/>
    <path fill="#646464" d="M46.925 60.1c-.926 0-1.524-.487-1.585-1.175l-.003-.032h.527l.003.032c.038.422.478.688 1.087.688.574 0 .993-.296.993-.726v-.003c0-.352-.243-.592-.823-.72l-.469-.104c-.846-.187-1.213-.577-1.213-1.189v-.003c.003-.7.616-1.195 1.489-1.195.843 0 1.432.498 1.476 1.128l.003.04h-.527l-.006-.037c-.059-.372-.41-.648-.961-.645-.527.003-.935.252-.935.694v.003c0 .337.232.566.806.692l.469.105c.882.197 1.23.551 1.23 1.16v.003c0 .791-.618 1.284-1.561 1.284m2.477-3.868a.353.353 0 0 1-.351-.351c0-.194.158-.352.351-.352a.353.353 0 0 1 0 .703M49.144 60v-3.158h.51V60zm2.604 1.113c-.762 0-1.248-.343-1.327-.861l.006-.003h.527l.003.003c.056.24.337.41.791.41.565 0 .902-.267.902-.732v-.639h-.047c-.199.349-.556.545-.99.545-.817 0-1.324-.633-1.324-1.518v-.005c0-.885.51-1.527 1.336-1.527.445 0 .791.22.984.577h.035v-.521h.51v3.114c0 .706-.545 1.157-1.406 1.157m-.023-1.728c.585 0 .937-.44.937-1.067v-.005c0-.628-.354-1.076-.937-1.076-.586 0-.915.448-.915 1.075v.006c0 .627.329 1.067.914 1.067m2.21.615v-3.158h.51v.474h.047c.158-.334.454-.53.92-.53.709 0 1.105.42 1.105 1.17V60h-.51v-1.922c0-.568-.235-.84-.738-.84-.504 0-.824.34-.824.893V60zm5.125-3.768a.353.353 0 0 1-.351-.351.352.352 0 0 1 .703 0 .353.353 0 0 1-.352.351M58.803 60v-3.158h.51V60zm1.302 0v-3.158h.51v.474h.047c.158-.334.454-.53.92-.53.709 0 1.104.42 1.104 1.17V60h-.51v-1.922c0-.568-.234-.84-.738-.84s-.823.34-.823.893V60z"/>
</svg>
